<svg width="28" height="26" viewBox="0 0 28 26" fill="none" xmlns="http://www.w3.org/2000/svg">
<g clip-path="url(#clip0)">
<path d="M14.3027 15.842C16.1452 15.842 17.6388 14.4235 17.6388 12.6736C17.6388 10.9237 16.1452 9.50519 14.3027 9.50519C12.4602 9.50519 10.9666 10.9237 10.9666 12.6736C10.9666 14.4235 12.4602 15.842 14.3027 15.842Z" stroke="#303030" stroke-width="2" stroke-linecap="round" stroke-linejoin="round"/>
<path d="M22.5318 15.842C22.3838 16.1606 22.3396 16.5139 22.405 16.8565C22.4704 17.1991 22.6424 17.5153 22.8988 17.7642L22.9655 17.8276C23.1723 18.0237 23.3363 18.2567 23.4482 18.5131C23.5602 18.7695 23.6178 19.0444 23.6178 19.322C23.6178 19.5996 23.5602 19.8744 23.4482 20.1309C23.3363 20.3873 23.1723 20.6202 22.9655 20.8164C22.7589 21.0128 22.5136 21.1686 22.2436 21.2749C21.9736 21.3812 21.6842 21.4359 21.392 21.4359C21.0997 21.4359 20.8103 21.3812 20.5403 21.2749C20.2703 21.1686 20.025 21.0128 19.8184 20.8164L19.7517 20.7531C19.4896 20.5096 19.1567 20.3462 18.796 20.2841C18.4353 20.222 18.0632 20.2639 17.7278 20.4045C17.3989 20.5384 17.1184 20.7607 16.9208 21.0441C16.7232 21.3274 16.6172 21.6594 16.6158 21.9993V22.1788C16.6158 22.739 16.3814 23.2763 15.9643 23.6724C15.5472 24.0686 14.9815 24.2911 14.3917 24.2911C13.8018 24.2911 13.2361 24.0686 12.819 23.6724C12.4019 23.2763 12.1676 22.739 12.1676 22.1788V22.0838C12.159 21.7342 12.0399 21.3952 11.8257 21.1108C11.6115 20.8264 11.3122 20.6097 10.9666 20.489C10.6312 20.3484 10.2591 20.3065 9.8984 20.3686C9.53766 20.4307 9.20479 20.5941 8.9427 20.8375L8.87598 20.9009C8.66942 21.0973 8.42413 21.2531 8.15414 21.3594C7.88414 21.4657 7.59473 21.5204 7.30245 21.5204C7.01017 21.5204 6.72076 21.4657 6.45076 21.3594C6.18076 21.2531 5.93547 21.0973 5.72891 20.9009C5.52213 20.7047 5.35808 20.4718 5.24616 20.2154C5.13423 19.9589 5.07662 19.6841 5.07662 19.4065C5.07662 19.1289 5.13423 18.854 5.24616 18.5976C5.35808 18.3412 5.52213 18.1082 5.72891 17.9121L5.79564 17.8487C6.052 17.5998 6.22398 17.2836 6.28939 16.941C6.3548 16.5984 6.31064 16.2451 6.16261 15.9265C6.02164 15.6141 5.78758 15.3477 5.48923 15.1601C5.19088 14.9724 4.84127 14.8717 4.48343 14.8704H4.29439C3.70453 14.8704 3.13882 14.6478 2.72173 14.2517C2.30463 13.8556 2.07031 13.3183 2.07031 12.7581C2.07031 12.1979 2.30463 11.6606 2.72173 11.2645C3.13882 10.8684 3.70453 10.6458 4.29439 10.6458H4.39447C4.76255 10.6377 5.11952 10.5245 5.41899 10.3211C5.71845 10.1177 5.94656 9.8334 6.07365 9.50523C6.22168 9.18668 6.26583 8.83332 6.20042 8.49071C6.13501 8.14811 5.96304 7.83197 5.70667 7.58306L5.63995 7.51969C5.43317 7.32352 5.26912 7.09056 5.15719 6.83414C5.04527 6.57771 4.98766 6.30285 4.98766 6.02526C4.98766 5.74768 5.04527 5.47282 5.15719 5.21639C5.26912 4.95997 5.43317 4.72701 5.63995 4.53083C5.84651 4.33444 6.0918 4.17864 6.3618 4.07235C6.6318 3.96605 6.92121 3.91133 7.21348 3.91133C7.50576 3.91133 7.79517 3.96605 8.06517 4.07235C8.33517 4.17864 8.58046 4.33444 8.78702 4.53083L8.85374 4.5942C9.11582 4.83768 9.4487 5.00101 9.80944 5.06313C10.1702 5.12525 10.5422 5.08331 10.8776 4.94273H10.9666C11.2955 4.80885 11.576 4.58655 11.7736 4.3032C11.9712 4.01985 12.0772 3.68781 12.0786 3.34796V3.16842C12.0786 2.60821 12.313 2.07095 12.7301 1.67482C13.1472 1.27869 13.7129 1.05615 14.3027 1.05615C14.8926 1.05615 15.4583 1.27869 15.8754 1.67482C16.2925 2.07095 16.5268 2.60821 16.5268 3.16842V3.26347C16.5282 3.60332 16.6343 3.93536 16.8318 4.21871C17.0294 4.50206 17.3099 4.72436 17.6388 4.85824C17.9742 4.99882 18.3463 5.04076 18.707 4.97864C19.0678 4.91652 19.4007 4.75319 19.6627 4.50971L19.7295 4.44634C19.936 4.24995 20.1813 4.09415 20.4513 3.98785C20.7213 3.88156 21.0107 3.82684 21.303 3.82684C21.5953 3.82684 21.8847 3.88156 22.1547 3.98785C22.4247 4.09415 22.67 4.24995 22.8765 4.44634C23.0833 4.64252 23.2474 4.87547 23.3593 5.1319C23.4712 5.38833 23.5288 5.66319 23.5288 5.94077C23.5288 6.21836 23.4712 6.49322 23.3593 6.74965C23.2474 7.00607 23.0833 7.23903 22.8765 7.4352L22.8098 7.49857C22.5534 7.74748 22.3815 8.06362 22.3161 8.40622C22.2506 8.74883 22.2948 9.10219 22.4428 9.42073V9.50523C22.5838 9.8176 22.8179 10.084 23.1162 10.2717C23.4146 10.4593 23.7642 10.56 24.122 10.5614H24.3111C24.9009 10.5614 25.4666 10.7839 25.8837 11.18C26.3008 11.5762 26.5351 12.1134 26.5351 12.6736C26.5351 13.2338 26.3008 13.7711 25.8837 14.1672C25.4666 14.5634 24.9009 14.7859 24.3111 14.7859H24.211C23.8531 14.7873 23.5035 14.888 23.2052 15.0756C22.9068 15.2633 22.6728 15.5297 22.5318 15.842V15.842Z" stroke="#303030" stroke-width="2" stroke-linecap="round" stroke-linejoin="round"/>
</g>
<defs>
<clipPath id="clip0">
<rect width="26.6889" height="25.3472" fill="white" transform="translate(0.958252)"/>
</clipPath>
</defs>
</svg>
